<mxfile host="app.diagrams.net" modified="2022-06-19T12:21:59.814Z" agent="5.0 (X11)" etag="dbPis6LFqRLtyI5yy2sJ" version="20.0.1" type="github">
  <diagram id="ygHeceL8BzQSWlNuRJB1" name="Page-1">
    <mxGraphModel dx="966" dy="527" grid="1" gridSize="10" guides="1" tooltips="1" connect="1" arrows="1" fold="1" page="1" pageScale="1" pageWidth="850" pageHeight="1100" math="0" shadow="0">
      <root>
        <mxCell id="0" />
        <mxCell id="1" parent="0" />
        <mxCell id="qdnnR55bSTKd08LSf75k-3" value="" style="edgeStyle=orthogonalEdgeStyle;rounded=0;orthogonalLoop=1;jettySize=auto;html=1;" edge="1" parent="1" source="qdnnR55bSTKd08LSf75k-1" target="qdnnR55bSTKd08LSf75k-2">
          <mxGeometry relative="1" as="geometry" />
        </mxCell>
        <mxCell id="qdnnR55bSTKd08LSf75k-1" value="Framework" style="rounded=0;whiteSpace=wrap;html=1;" vertex="1" parent="1">
          <mxGeometry x="80" y="160" width="120" height="60" as="geometry" />
        </mxCell>
        <mxCell id="qdnnR55bSTKd08LSf75k-5" value="" style="edgeStyle=orthogonalEdgeStyle;rounded=0;orthogonalLoop=1;jettySize=auto;html=1;" edge="1" parent="1" source="qdnnR55bSTKd08LSf75k-2" target="qdnnR55bSTKd08LSf75k-4">
          <mxGeometry relative="1" as="geometry" />
        </mxCell>
        <mxCell id="qdnnR55bSTKd08LSf75k-2" value="Theory" style="rounded=0;whiteSpace=wrap;html=1;" vertex="1" parent="1">
          <mxGeometry x="270" y="160" width="120" height="60" as="geometry" />
        </mxCell>
        <mxCell id="qdnnR55bSTKd08LSf75k-7" value="" style="edgeStyle=orthogonalEdgeStyle;rounded=0;orthogonalLoop=1;jettySize=auto;html=1;" edge="1" parent="1" source="qdnnR55bSTKd08LSf75k-4" target="qdnnR55bSTKd08LSf75k-6">
          <mxGeometry relative="1" as="geometry" />
        </mxCell>
        <mxCell id="qdnnR55bSTKd08LSf75k-4" value="Specification" style="rounded=0;whiteSpace=wrap;html=1;" vertex="1" parent="1">
          <mxGeometry x="470" y="160" width="120" height="60" as="geometry" />
        </mxCell>
        <mxCell id="qdnnR55bSTKd08LSf75k-17" value="" style="edgeStyle=orthogonalEdgeStyle;rounded=0;orthogonalLoop=1;jettySize=auto;html=1;" edge="1" parent="1" source="qdnnR55bSTKd08LSf75k-6" target="qdnnR55bSTKd08LSf75k-8">
          <mxGeometry relative="1" as="geometry">
            <mxPoint x="720" y="299.9999999999999" as="targetPoint" />
          </mxGeometry>
        </mxCell>
        <mxCell id="qdnnR55bSTKd08LSf75k-6" value="&lt;div&gt;Implementation&lt;/div&gt;&lt;div&gt;/&lt;/div&gt;&lt;div&gt;Simulation&lt;/div&gt;" style="rounded=0;whiteSpace=wrap;html=1;" vertex="1" parent="1">
          <mxGeometry x="660" y="160" width="120" height="60" as="geometry" />
        </mxCell>
        <mxCell id="qdnnR55bSTKd08LSf75k-11" value="" style="edgeStyle=orthogonalEdgeStyle;rounded=0;orthogonalLoop=1;jettySize=auto;html=1;" edge="1" parent="1" source="qdnnR55bSTKd08LSf75k-8" target="qdnnR55bSTKd08LSf75k-10">
          <mxGeometry relative="1" as="geometry" />
        </mxCell>
        <mxCell id="qdnnR55bSTKd08LSf75k-8" value="Hypothesis" style="rounded=0;whiteSpace=wrap;html=1;" vertex="1" parent="1">
          <mxGeometry x="660" y="320" width="120" height="60" as="geometry" />
        </mxCell>
        <mxCell id="qdnnR55bSTKd08LSf75k-15" style="edgeStyle=orthogonalEdgeStyle;rounded=0;orthogonalLoop=1;jettySize=auto;html=1;" edge="1" parent="1" source="qdnnR55bSTKd08LSf75k-10" target="qdnnR55bSTKd08LSf75k-2">
          <mxGeometry relative="1" as="geometry">
            <mxPoint x="320" y="260" as="targetPoint" />
          </mxGeometry>
        </mxCell>
        <mxCell id="qdnnR55bSTKd08LSf75k-10" value="Data" style="rounded=0;whiteSpace=wrap;html=1;" vertex="1" parent="1">
          <mxGeometry x="270" y="320" width="120" height="60" as="geometry" />
        </mxCell>
      </root>
    </mxGraphModel>
  </diagram>
</mxfile>
